<svg width="29" height="28" viewBox="0 0 29 28" fill="none" xmlns="http://www.w3.org/2000/svg">
<g opacity="0.5">
<g clip-path="url(#clip0)">
<path d="M22.184 15.2399L22.6729 15.2345L22.6784 14.7455L22.6968 13.1005L22.7025 12.5893L22.1912 12.595L16.1808 12.6622L16.2481 6.65184L16.2538 6.14056L15.7425 6.14628L14.0975 6.16468L13.6086 6.17015L13.6031 6.65905L13.5357 12.6918L7.5029 12.7593L7.01399 12.7648L7.00852 13.2537L6.99012 14.8987L6.9844 15.41L7.49568 15.4042L13.5061 15.337L13.4388 21.3474L13.4331 21.8587L13.9444 21.8529L15.5894 21.8345L16.0783 21.8291L16.0838 21.3402L16.1513 15.3074L22.184 15.2399Z" fill="#54CCA1" stroke="#54CCA1"/>
</g>
</g>
<defs>
<clipPath id="clip0">
<rect x="15" width="19.5775" height="20.0205" transform="rotate(45 15 0)" fill="white"/>
</clipPath>
</defs>
</svg>
